<?xml version="1.0" standalone="no"?>
<!DOCTYPE svg PUBLIC "-//W3C//DTD SVG 20010904//EN"
 "http://www.w3.org/TR/2001/REC-SVG-20010904/DTD/svg10.dtd">
<svg version="1.0" xmlns="http://www.w3.org/2000/svg"
 width="735.000000pt" height="736.000000pt" viewBox="0 0 735.000000 736.000000"
 preserveAspectRatio="xMidYMid meet">

<g transform="translate(0.000000,736.000000) scale(0.100000,-0.100000)"
fill="#000000" stroke="none">
<path d="M782 7276 c-45 -46 -82 -89 -82 -96 0 -7 26 -39 58 -71 45 -45 63
-57 79 -53 28 8 173 157 173 178 0 26 -99 126 -125 126 -14 0 -50 -29 -103
-84z"/>
<path d="M1078 7188 c-25 -24 -64 -65 -87 -91 -59 -69 -57 -95 17 -169 88 -88
107 -83 250 59 47 47 52 57 52 96 0 38 -5 48 -53 95 -46 45 -58 52 -93 52 -33
0 -48 -7 -86 -42z"/>
<path d="M1484 7121 c-64 -46 -202 -195 -209 -224 -11 -42 10 -79 85 -151 72
-70 107 -90 145 -80 29 7 233 208 246 242 17 45 1 77 -85 161 -96 93 -118 99
-182 52z"/>
<path d="M553 7047 c-46 -46 -83 -92 -83 -102 0 -24 101 -125 125 -125 24 0
185 161 185 185 0 24 -101 125 -125 125 -10 0 -56 -37 -102 -83z"/>
<path d="M766 6872 c-91 -91 -96 -98 -96 -136 0 -22 14 -43 58 -88 87 -86 124
-79 241 49 54 59 61 71 61 108 0 36 -6 47 -53 93 -46 45 -58 52 -93 52 -38 0
-47 -6 -118 -78z"/>
<path d="M1890 6924 c-41 -27 -220 -207 -236 -236 -18 -34 -18 -81 0 -116 8
-15 50 -62 93 -104 82 -79 123 -99 175 -83 37 12 266 243 273 277 12 55 -5 90
-84 171 -42 44 -88 85 -103 93 -36 19 -88 18 -118 -2z"/>
<path d="M324 6818 c-55 -53 -84 -89 -84 -103 0 -26 100 -125 126 -125 21 0
170 145 178 173 4 16 -8 34 -53 79 -32 32 -64 58 -71 58 -7 0 -50 -37 -96 -82z"/>
<path d="M1145 6778 c-40 -22 -215 -203 -225 -234 -15 -45 -4 -65 83 -153 77
-78 102 -92 145 -82 28 7 231 207 244 240 16 44 -1 76 -86 160 -87 84 -113 96
-161 69z"/>
<path d="M2355 6688 c-11 -5 -80 -69 -153 -142 -190 -188 -193 -207 -48 -354
50 -52 103 -100 118 -108 32 -17 81 -18 111 -3 31 16 266 249 283 281 19 36
18 98 -2 126 -32 46 -183 192 -209 202 -34 13 -75 12 -100 -2z"/>
<path d="M582 6672 c-12 -2 -51 -31 -86 -65 -130 -127 -135 -151 -48 -239 45
-44 66 -58 88 -58 38 0 45 5 137 97 71 71 77 81 77 118 0 36 -6 47 -52 92 -54
51 -75 61 -116 55z"/>
<path d="M88 6585 c-52 -50 -78 -83 -78 -98 0 -14 20 -43 54 -76 44 -43 59
-52 78 -48 36 9 168 150 168 179 0 33 -87 118 -120 118 -17 0 -49 -23 -102
-75z"/>
<path d="M5860 6543 c-123 -9 -340 -36 -468 -58 -640 -111 -1110 -332 -1332
-626 -241 -320 -237 -702 11 -1189 71 -139 133 -238 125 -198 -78 364 52 759
374 1132 266 308 733 631 1261 872 79 36 146 68 148 70 4 4 -40 3 -119 -3z"/>
<path d="M1480 6514 c-41 -27 -220 -207 -236 -236 -8 -15 -14 -46 -14 -69 0
-38 6 -47 83 -126 111 -114 151 -133 215 -99 49 26 249 238 256 272 13 58 -24
112 -164 238 -45 41 -97 48 -140 20z"/>
<path d="M775 6411 c-47 -29 -203 -193 -215 -225 -16 -43 -5 -64 83 -153 75
-76 85 -83 121 -83 36 0 47 8 153 112 63 62 116 123 119 135 10 39 -3 66 -58
123 -112 115 -143 129 -203 91z"/>
<path d="M2845 6396 c-16 -8 -103 -88 -192 -178 l-163 -164 0 -46 c0 -53 7
-63 140 -201 92 -96 122 -117 170 -117 51 0 77 21 241 187 170 171 182 192
156 256 -19 44 -207 240 -251 261 -41 19 -61 20 -101 2z"/>
<path d="M301 6392 c-25 -4 -161 -131 -180 -169 -23 -46 -14 -74 47 -135 86
-85 101 -83 214 30 81 81 88 91 88 128 0 35 -7 46 -52 91 -54 52 -75 61 -117
55z"/>
<path d="M1911 6223 c-28 -5 -285 -252 -307 -295 -18 -34 -18 -81 0 -116 8
-15 57 -68 109 -119 149 -144 165 -141 364 60 136 137 150 160 139 222 -13 66
-221 261 -272 254 -5 -1 -20 -4 -33 -6z"/>
<path d="M1075 6106 c-16 -8 -78 -63 -138 -123 -151 -153 -158 -189 -53 -301
110 -118 166 -144 234 -108 15 8 78 66 140 129 l112 114 0 53 c0 52 0 53 -82
137 -106 110 -147 128 -213 99z"/>
<path d="M322 5968 c-160 -157 -162 -176 -37 -297 74 -73 86 -81 121 -81 35 0
47 8 156 118 153 153 154 167 19 295 -64 60 -75 67 -113 67 -38 0 -47 -6 -146
-102z"/>
<path d="M3319 6012 c-14 -9 -96 -87 -181 -172 -166 -166 -182 -191 -158 -256
16 -42 238 -262 277 -275 60 -20 96 2 247 150 76 75 152 154 167 175 32 44 38
91 15 134 -17 32 -222 235 -253 251 -32 16 -84 13 -114 -7z"/>
<path d="M2325 5879 c-11 -6 -93 -84 -182 -173 -221 -219 -221 -220 -50 -394
62 -63 124 -120 139 -128 32 -17 71 -18 101 -3 31 16 326 309 343 341 18 34
18 72 0 106 -17 32 -222 235 -253 251 -27 14 -72 14 -98 0z"/>
<path d="M1425 5738 c-11 -5 -80 -69 -153 -142 -190 -188 -193 -207 -48 -354
50 -52 103 -100 118 -108 36 -19 88 -18 118 2 41 27 260 247 276 276 22 42 18
102 -10 135 -33 39 -140 146 -177 177 -33 28 -88 34 -124 14z"/>
<path d="M675 5699 c-19 -5 -75 -54 -147 -126 -165 -168 -167 -192 -24 -331
86 -84 113 -98 174 -89 29 5 57 27 145 114 60 59 115 120 123 135 23 43 17 90
-15 134 -46 62 -133 142 -173 159 -42 17 -41 17 -83 4z"/>
<path d="M4700 5553 c-223 -210 -367 -466 -416 -735 -20 -110 -23 -316 -5
-405 l12 -62 208 -208 c114 -114 255 -261 314 -326 557 -616 994 -1264 1300
-1927 72 -158 177 -413 177 -433 0 -5 -27 27 -59 71 -71 95 -229 263 -359 378
-314 281 -798 589 -1352 863 -473 234 -973 386 -1488 453 -220 28 -567 30
-751 4 -562 -81 -968 -327 -1254 -761 -86 -131 -211 -385 -189 -385 5 0 19 12
33 26 13 15 60 55 104 89 226 177 498 303 760 351 135 24 376 16 507 -19 360
-95 678 -333 974 -730 201 -271 250 -332 350 -447 108 -122 286 -299 394 -391
403 -343 897 -582 1370 -663 139 -24 329 -39 414 -33 l79 5 598 598 c391 390
599 606 603 623 14 63 18 302 7 406 -64 594 -351 1152 -853 1657 -138 139
-236 225 -473 415 -226 182 -378 320 -519 472 -229 249 -384 514 -431 739 -30
146 -15 324 36 425 11 21 19 41 16 43 -2 2 -50 -40 -107 -93z"/>
<path d="M3632 5448 c-84 -84 -160 -165 -168 -180 -21 -41 -18 -117 7 -158 27
-44 202 -216 241 -236 38 -20 125 -16 120 6 -2 8 -13 49 -23 90 -29 113 -40
274 -29 428 5 74 12 149 16 168 3 19 3 34 -2 34 -4 0 -77 -69 -162 -152z"/>
<path d="M2781 5469 c-28 -11 -291 -267 -332 -323 -32 -44 -38 -91 -15 -134
17 -32 222 -235 253 -251 42 -21 87 -13 134 23 74 59 307 300 319 331 23 61 6
92 -118 219 -138 140 -176 161 -241 135z"/>
<path d="M1633 5198 c-232 -231 -233 -234 -55 -409 188 -186 188 -186 405 29
87 87 165 169 173 184 23 43 18 92 -13 130 -41 48 -171 179 -211 210 -26 21
-46 28 -80 28 l-46 0 -173 -172z"/>
<path d="M975 5269 c-32 -9 -277 -246 -301 -291 -18 -34 -18 -82 0 -116 8 -15
54 -66 103 -114 149 -148 166 -146 351 36 74 72 141 144 149 160 10 19 13 44
10 69 -5 34 -20 54 -104 139 -54 55 -105 103 -113 107 -28 15 -65 19 -95 10z"/>
<path d="M3232 5039 c-37 -11 -305 -269 -341 -329 -25 -41 -28 -118 -7 -158
22 -40 227 -239 259 -251 89 -34 141 -5 318 175 123 126 147 156 157 193 6 24
9 48 7 55 -2 6 -6 24 -10 41 -9 39 -206 241 -260 266 -44 20 -73 22 -123 8z"/>
<path d="M2205 4901 c-48 -30 -322 -313 -335 -345 -23 -61 -5 -93 124 -224
109 -111 125 -124 163 -129 23 -3 52 -3 65 0 20 6 335 310 358 347 5 8 10 35
10 59 0 43 -3 47 -133 177 -131 132 -133 134 -177 134 -27 0 -57 -8 -75 -19z"/>
<path d="M1298 4847 c-46 -20 -346 -325 -358 -363 -20 -58 0 -90 134 -222 118
-117 124 -122 165 -122 23 0 52 5 64 11 31 16 316 299 333 331 18 34 18 81 0
116 -19 36 -239 252 -257 252 -8 0 -23 2 -34 5 -11 3 -32 -1 -47 -8z"/>
<path d="M3705 4609 c-31 -17 -355 -341 -371 -371 -18 -35 -18 -111 0 -146 22
-40 257 -269 289 -282 87 -32 132 -7 309 167 157 156 192 199 203 250 14 67
-7 101 -142 237 -70 71 -142 135 -160 142 -39 17 -100 18 -128 3z"/>
<path d="M2641 4464 c-42 -18 -283 -252 -322 -313 -41 -63 -41 -132 0 -187 47
-64 206 -213 244 -229 87 -36 130 -15 295 148 151 150 171 174 183 225 16 71
-3 107 -125 231 -61 62 -125 120 -143 127 -41 18 -89 17 -132 -2z"/>
<path d="M1670 4359 c-30 -12 -326 -303 -346 -341 -19 -36 -18 -88 2 -118 27
-41 217 -230 246 -246 34 -18 72 -18 106 0 15 8 100 88 188 178 170 172 186
196 164 254 -13 33 -221 248 -262 270 -31 16 -62 17 -98 3z"/>
<path d="M4195 4106 c-16 -8 -105 -90 -197 -182 -180 -183 -198 -212 -184
-291 6 -32 30 -61 149 -180 133 -132 145 -142 188 -148 78 -11 115 13 296 196
89 90 166 177 172 192 14 37 13 107 -2 134 -17 31 -225 241 -266 270 -39 27
-108 31 -156 9z"/>
<path d="M3095 4001 c-43 -27 -330 -312 -354 -352 -27 -43 -27 -108 -1 -157
11 -20 46 -64 79 -96 l59 -59 151 -18 c83 -10 164 -20 179 -24 25 -5 41 8 174
142 123 124 147 154 153 186 14 75 -7 111 -139 245 -66 68 -133 130 -148 138
-39 20 -117 18 -153 -5z"/>
<path d="M2055 3894 c-42 -21 -312 -292 -330 -330 -36 -77 -13 -148 77 -238
l39 -39 77 11 c68 11 349 42 373 42 5 0 43 34 84 75 139 141 128 202 -72 396
-37 37 -82 74 -100 83 -40 20 -109 21 -148 0z"/>
<path d="M4695 3569 c-37 -11 -332 -301 -351 -346 -37 -84 -11 -139 126 -274
120 -118 152 -135 228 -124 43 6 57 17 200 158 156 155 192 202 192 257 0 55
-26 93 -135 204 -133 133 -171 152 -260 125z"/>
<path d="M3605 3511 c-22 -10 -89 -68 -148 -128 l-108 -109 108 -23 c116 -25
360 -94 482 -136 58 -19 77 -22 83 -13 13 21 9 107 -6 136 -8 15 -70 82 -138
148 -95 94 -132 124 -163 133 -53 15 -63 14 -110 -8z"/>
<path d="M2525 3420 c-26 -9 -95 -60 -95 -71 0 -2 65 -4 145 -5 99 0 144 3
142 10 -2 6 -21 23 -43 38 -44 31 -104 42 -149 28z"/>
<path d="M5175 3092 c-22 -3 -67 -41 -188 -160 -87 -87 -165 -169 -173 -184
l-14 -26 115 -61 c62 -33 166 -90 231 -127 l116 -67 124 124 c78 78 126 133
129 151 5 22 -4 43 -54 115 -72 105 -185 220 -226 231 -17 4 -43 6 -60 4z"/>
<path d="M5535 2459 c-58 -57 -105 -105 -105 -108 0 -3 41 -35 91 -71 51 -36
143 -105 207 -153 l115 -89 41 41 41 41 -18 32 c-46 86 -246 403 -256 406 -7
2 -59 -42 -116 -99z"/>
<path d="M5956 1983 l-20 -26 60 -53 c32 -29 61 -51 63 -48 5 5 -71 154 -78
154 -3 0 -15 -13 -25 -27z"/>
<path d="M6496 851 l-569 -569 142 -143 141 -144 570 570 570 570 -140 143
c-77 78 -141 142 -142 142 -2 0 -259 -256 -572 -569z"/>
</g>
</svg>
